<?xml version="1.0" encoding="UTF-8" standalone="no"?>
<!-- Created with Inkscape (http://www.inkscape.org/) -->

<svg
   xmlns:dc="http://purl.org/dc/elements/1.1/"
   xmlns:cc="http://creativecommons.org/ns#"
   xmlns:rdf="http://www.w3.org/1999/02/22-rdf-syntax-ns#"
   xmlns:svg="http://www.w3.org/2000/svg"
   xmlns="http://www.w3.org/2000/svg"
   xmlns:sodipodi="http://sodipodi.sourceforge.net/DTD/sodipodi-0.dtd"
   xmlns:inkscape="http://www.inkscape.org/namespaces/inkscape"
   width="64"
   height="64"
   viewBox="0 0 16.933333 16.933334"
   version="1.1"
   id="svg900"
   inkscape:version="0.92.2 (5c3e80d, 2017-08-06)"
   sodipodi:docname="Gradient.svg.2018_02_16_19_45_09.0.svg">
  <defs
     id="defs894" />
  <sodipodi:namedview
     id="base"
     pagecolor="#ffffff"
     bordercolor="#666666"
     borderopacity="1.0"
     inkscape:pageopacity="0.0"
     inkscape:pageshadow="2"
     inkscape:zoom="22.253485"
     inkscape:cx="24.317891"
     inkscape:cy="33.092308"
     inkscape:document-units="mm"
     inkscape:current-layer="layer1"
     showgrid="false"
     units="px"
     showguides="true"
     inkscape:guide-bbox="true"
     inkscape:window-width="3840"
     inkscape:window-height="2035"
     inkscape:window-x="3827"
     inkscape:window-y="-13"
     inkscape:window-maximized="1">
    <sodipodi:guide
       position="11.527745,6.4708436"
       orientation="0,1"
       id="guide1460"
       inkscape:locked="false" />
    <sodipodi:guide
       position="7.4309521,4.3396735"
       orientation="0,1"
       id="guide814"
       inkscape:locked="false" />
  </sodipodi:namedview>
  <metadata
     id="metadata897">
    <rdf:RDF>
      <cc:Work
         rdf:about="">
        <dc:format>image/svg+xml</dc:format>
        <dc:type
           rdf:resource="http://purl.org/dc/dcmitype/StillImage" />
        <dc:title />
      </cc:Work>
    </rdf:RDF>
  </metadata>
  <g
     inkscape:label="Calque 1"
     inkscape:groupmode="layer"
     id="layer1"
     transform="translate(0,-280.06665)">
    <path
       style="fill:none;stroke:#000000;stroke-width:1.58749998;stroke-linecap:butt;stroke-linejoin:miter;stroke-miterlimit:4;stroke-dasharray:none;stroke-opacity:1"
       d="m 0.6063657,286.15071 h 5.790198 l 1.0343885,5.98043 h 8.8814738"
       id="path1546"
       inkscape:connector-curvature="0"
       sodipodi:nodetypes="cccc" />
    <path
       style="opacity:0.5;fill:none;stroke:#000000;stroke-width:1.58455729;stroke-linecap:butt;stroke-linejoin:miter;stroke-miterlimit:4;stroke-dasharray:none;stroke-opacity:1"
       d="m 0.6063662,292.11857 h 5.790198 l 1.034388,-5.95827 h 8.8814738"
       id="path1546-3"
       inkscape:connector-curvature="0"
       sodipodi:nodetypes="cccc" />
    <g
       aria-label="a"
       transform="scale(1.0739634,0.93113043)"
       style="font-style:normal;font-variant:normal;font-weight:bold;font-stretch:normal;font-size:5.601758px;line-height:1.25;font-family:'Berlin Sans FB Demi';-inkscape-font-specification:'Berlin Sans FB Demi, Bold';font-variant-ligatures:normal;font-variant-caps:normal;font-variant-numeric:normal;font-feature-settings:normal;text-align:start;letter-spacing:0px;word-spacing:0px;writing-mode:lr-tb;text-anchor:start;fill:#000000;fill-opacity:1;stroke:none;stroke-width:0.14004557"
       id="text832">
      <path
         d="m 3.4630557,316.19906 q 0,0.21062 0.024617,0.62637 0.024617,0.41576 0.024617,0.62364 0,0.10941 -0.095733,0.11761 -0.339169,0.0246 -0.7768063,0.0246 -0.051969,0 -0.071116,-0.15591 -0.016411,-0.15864 -0.041028,-0.16138 -0.021882,0.0109 -0.05744,0.0465 -0.3063461,0.30908 -0.656456,0.30908 -0.5333705,0 -0.88348039,-0.42122 -0.33096324,-0.39388 -0.33096324,-0.94092 0,-0.63184 0.34190418,-1.01751 0.35558035,-0.39935 0.97374305,-0.39935 0.4294317,0 0.6783379,0.30088 0.010941,0.0137 0.019147,0.0137 0.024617,0 0.054705,-0.1313 0.032823,-0.13402 0.076587,-0.13402 0.1012036,0 0.3856679,0.0574 0.2707881,0.0547 0.3884031,0.093 0.041029,0.0164 0.041029,0.0438 0,0.0109 -0.00821,0.0574 -0.087528,0.49508 -0.087528,1.04759 z m -0.8807451,0.0164 q 0,-0.2325 -0.1477026,-0.38294 -0.1449674,-0.15317 -0.3801975,-0.15317 -0.23523,0 -0.3801974,0.15044 -0.1449674,0.15044 -0.1449674,0.38567 0,0.22155 0.1531731,0.38019 0.1531731,0.15865 0.3719917,0.15865 0.2324949,0 0.3801975,-0.15044 0.1477026,-0.15317 0.1477026,-0.3884 z"
         style="font-style:normal;font-variant:normal;font-weight:bold;font-stretch:normal;font-size:5.601758px;font-family:'Berlin Sans FB Demi';-inkscape-font-specification:'Berlin Sans FB Demi, Bold';font-variant-ligatures:normal;font-variant-caps:normal;font-variant-numeric:normal;font-feature-settings:normal;text-align:start;writing-mode:lr-tb;text-anchor:start;stroke-width:0.14004557"
         id="path855" />
    </g>
    <g
       aria-label="b"
       transform="scale(1.0739634,0.93113043)"
       style="font-style:normal;font-variant:normal;font-weight:bold;font-stretch:normal;font-size:5.601758px;line-height:1.25;font-family:'Berlin Sans FB Demi';-inkscape-font-specification:'Berlin Sans FB Demi, Bold';font-variant-ligatures:normal;font-variant-caps:normal;font-variant-numeric:normal;font-feature-settings:normal;text-align:start;letter-spacing:0px;word-spacing:0px;writing-mode:lr-tb;text-anchor:start;fill:#000000;fill-opacity:1;stroke:none;stroke-width:0.14004558"
       id="text832-5">
      <path
         d="m 3.6481906,304.78897 q 0,0.5744 -0.328228,0.96006 -0.3501099,0.41029 -0.913568,0.41029 -0.410285,0 -0.6619265,-0.23523 -0.019147,-0.0164 -0.032823,-0.0164 -0.027352,0 -0.051969,0.1012 -0.021882,0.1012 -0.054705,0.11214 -0.046499,0.0137 -0.7795415,0.0137 -0.1723197,0 -0.1723197,-0.0629 0,-0.008 0.00547,-0.041 0.0547047,-0.4349 0.0547047,-1.65755 0,-1.16794 -0.082057,-2.03228 l -0.002735,-0.0301 q 0,-0.0438 0.0847922,-0.0492 0.0601751,-0.003 0.47593057,-0.041 0.29267,-0.0273 0.4759307,-0.0273 0.051969,0 0.051969,0.0903 0,0.10668 -0.013676,0.28173 -0.016411,0.21608 -0.019147,0.28447 -0.013676,0.27078 -0.013676,0.73851 0,0.0848 0.043764,0.0848 0.021882,0 0.041029,-0.0219 0.246171,-0.26258 0.645515,-0.26258 0.5990162,0 0.9354499,0.40755 0.3118166,0.37746 0.3118166,0.99289 z m -0.9901545,-0.0301 q 0,-0.22703 -0.1394969,-0.38293 -0.1394969,-0.15865 -0.3637861,-0.15865 -0.2297596,0 -0.363786,0.15865 -0.1312912,0.1559 -0.1312912,0.3884 0,0.2407 0.128556,0.3884 0.1367616,0.15591 0.3719917,0.15591 0.2324948,0 0.3692565,-0.16138 0.128556,-0.15044 0.128556,-0.3884 z"
         style="font-style:normal;font-variant:normal;font-weight:bold;font-stretch:normal;font-size:5.601758px;font-family:'Berlin Sans FB Demi';-inkscape-font-specification:'Berlin Sans FB Demi, Bold';font-variant-ligatures:normal;font-variant-caps:normal;font-variant-numeric:normal;font-feature-settings:normal;text-align:start;writing-mode:lr-tb;text-anchor:start;stroke-width:0.14004558"
         id="path852" />
    </g>
  </g>
</svg>
