<?xml version="1.0" encoding="UTF-8" standalone="no"?>
<!-- Created with Inkscape (http://www.inkscape.org/) -->

<svg
   xmlns:dc="http://purl.org/dc/elements/1.1/"
   xmlns:cc="http://creativecommons.org/ns#"
   xmlns:rdf="http://www.w3.org/1999/02/22-rdf-syntax-ns#"
   xmlns:svg="http://www.w3.org/2000/svg"
   xmlns="http://www.w3.org/2000/svg"
   xmlns:sodipodi="http://sodipodi.sourceforge.net/DTD/sodipodi-0.dtd"
   xmlns:inkscape="http://www.inkscape.org/namespaces/inkscape"
   width="64"
   height="64"
   viewBox="0 0 16.933333 16.933333"
   version="1.1"
   id="svg8"
   inkscape:version="0.92.2 (5c3e80d, 2017-08-06)"
   sodipodi:docname="Minimum.svg">
  <defs
     id="defs2" />
  <sodipodi:namedview
     id="base"
     pagecolor="#ffffff"
     bordercolor="#666666"
     borderopacity="1.0"
     inkscape:pageopacity="0.0"
     inkscape:pageshadow="2"
     inkscape:zoom="16"
     inkscape:cx="-19.616191"
     inkscape:cy="11.994297"
     inkscape:document-units="mm"
     inkscape:current-layer="layer1"
     showgrid="false"
     units="px"
     width="64mm"
     fit-margin-top="0"
     fit-margin-left="0"
     fit-margin-right="0"
     fit-margin-bottom="0"
     showguides="true"
     inkscape:guide-bbox="true"
     inkscape:window-width="3840"
     inkscape:window-height="2115"
     inkscape:window-x="-13"
     inkscape:window-y="125"
     inkscape:window-maximized="1">
    <sodipodi:guide
       position="15.676562,-3.0096354"
       orientation="0,1"
       id="guide875"
       inkscape:locked="false" />
  </sodipodi:namedview>
  <metadata
     id="metadata5">
    <rdf:RDF>
      <cc:Work
         rdf:about="">
        <dc:format>image/svg+xml</dc:format>
        <dc:type
           rdf:resource="http://purl.org/dc/dcmitype/StillImage" />
        <dc:title></dc:title>
      </cc:Work>
    </rdf:RDF>
  </metadata>
  <g
     inkscape:label="Calque 1"
     inkscape:groupmode="layer"
     id="layer1"
     transform="translate(149.75578,72.539123)">
    <g
       id="g873"
       transform="matrix(0.70116534,0,0,0.64274806,-150.16469,-72.439773)">
      <g
         id="g817">
        <path
           id="path815"
           d="M 20.707,10.028 11.872,1.193 C 11.103,0.424 10.078,0 8.985,0 7.893,0 6.868,0.424 6.099,1.193 L 5.361,1.931 C 4.592,2.698 4.168,3.724 4.168,4.816 c 0,1.092 0.424,2.117 1.193,2.887 l 5.328,5.328 -5.328,5.328 c -0.769,0.77 -1.193,1.794 -1.193,2.887 0,1.093 0.424,2.118 1.194,2.887 l 0.736,0.736 c 0.77,0.771 1.794,1.193 2.887,1.193 1.093,0 2.117,-0.424 2.887,-1.193 l 8.835,-8.836 c 0.787,-0.785 1.216,-1.875 1.186,-3.002 0.03,-1.126 -0.397,-2.215 -1.186,-3.003 z m -1.414,4.591 -8.835,8.836 c -0.403,0.404 -0.938,0.607 -1.473,0.607 -0.535,0 -1.068,-0.203 -1.474,-0.607 L 6.775,22.718 c -0.811,-0.809 -0.811,-2.135 0,-2.943 L 13.517,13.033 6.775,6.289 C 5.964,5.479 5.964,4.153 6.775,3.346 L 7.511,2.609 C 7.917,2.203 8.451,2 8.985,2 9.52,2 10.054,2.203 10.458,2.607 l 8.835,8.835 c 0.436,0.435 0.628,1.018 0.598,1.589 0.03,0.571 -0.163,1.154 -0.598,1.588 z"
           style="fill:#010002"
           inkscape:connector-curvature="0" />
      </g>
      <g
         id="g819" />
      <g
         id="g821" />
      <g
         id="g823" />
      <g
         id="g825" />
      <g
         id="g827" />
      <g
         id="g829" />
      <g
         id="g831" />
      <g
         id="g833" />
      <g
         id="g835" />
      <g
         id="g837" />
      <g
         id="g839" />
      <g
         id="g841" />
      <g
         id="g843" />
      <g
         id="g845" />
      <g
         id="g847" />
    </g>
  </g>
</svg>
